<svg version="1.1" id="Calque_1"
	xmlns="http://www.w3.org/2000/svg" x="0px" y="0px" viewBox="0 0 500 500" style="enable-background:new 0 0 500 500;">


	<style>
				{
'.st0{fill:#4D4A5C;}
	.st1{fill:#DB6551;}
	.st2{fill:none;}
	.st3{fill:#4F4B5C;}
	.st4{fill:#DDB057;}'				}
	</style>
	<g>
		<g>
			<g>
				<path className="st0" d="M99.61,369.75c-1.11-0.9-1.99-1.92-2.64-3.06c-0.69-1.17-1.04-2.33-1.04-3.47v-1.19h5.34v0.16
				c0,0.66,0.16,1.3,0.49,1.92c0.33,0.62,0.75,1.14,1.27,1.55c1.66,1.31,3.84,1.97,6.53,1.97c2.76,0,4.92-0.45,6.48-1.35
				c1.35-0.76,2.02-1.78,2.02-3.06c0-0.69-0.18-1.3-0.54-1.84c-0.36-0.54-0.94-1.04-1.74-1.53c-0.73-0.45-1.54-0.83-2.44-1.14
				c-0.9-0.31-1.99-0.66-3.27-1.04l-2.33-0.67c-1.45-0.41-2.73-0.83-3.84-1.24c-1.11-0.41-2.16-0.93-3.16-1.55
				c-1.55-0.97-2.75-2.11-3.58-3.42c-0.83-1.35-1.24-2.83-1.24-4.46c0-1.45,0.35-2.8,1.04-4.04c0.69-1.24,1.68-2.32,2.95-3.21
				c2.45-1.62,5.72-2.44,9.79-2.44c4.01,0,7.34,1.05,10,3.16c1.11,0.9,1.99,1.92,2.64,3.06c0.69,1.18,1.04,2.33,1.04,3.47v1.19
				h-5.34v-0.16c-0.03-0.66-0.19-1.28-0.47-1.87c-0.28-0.59-0.71-1.12-1.29-1.61c-1.69-1.31-3.89-1.97-6.58-1.97
				c-2.76,0-4.92,0.45-6.48,1.35c-1.31,0.76-1.97,1.78-1.97,3.06c0,0.59,0.15,1.16,0.44,1.71c0.29,0.55,0.91,1.11,1.84,1.66
				c0.73,0.45,1.54,0.84,2.44,1.17c0.9,0.33,1.99,0.68,3.26,1.06l2.33,0.67c1.45,0.41,2.73,0.82,3.84,1.22
				c1.1,0.4,2.16,0.91,3.16,1.53c1.55,0.97,2.73,2.11,3.52,3.42c0.83,1.35,1.24,2.83,1.24,4.46c0,1.45-0.35,2.8-1.04,4.04
				c-0.69,1.24-1.68,2.32-2.95,3.21c-2.45,1.62-5.72,2.44-9.79,2.44C105.58,372.91,102.27,371.85,99.61,369.75z"/>
				<path className="st0" d="M137.88,371.92c-1.57-0.66-2.98-1.59-4.22-2.8c-1.21-1.24-2.14-2.65-2.8-4.22
				c-0.66-1.57-0.98-3.22-0.98-4.95c0-1.73,0.33-3.39,0.98-4.98c0.66-1.59,1.59-2.99,2.8-4.2c1.24-1.21,2.65-2.14,4.22-2.8
				c1.57-0.66,3.22-0.98,4.95-0.98c1.73,0,3.39,0.33,4.98,0.98c1.59,0.66,2.99,1.59,4.2,2.8c1.21,1.21,2.14,2.61,2.8,4.2
				c0.66,1.59,0.98,3.25,0.98,4.98c0,1.73-0.33,3.38-0.98,4.95c-0.66,1.57-1.59,2.98-2.8,4.22c-1.21,1.21-2.61,2.14-4.2,2.8
				c-1.59,0.66-3.25,0.98-4.98,0.98C141.1,372.91,139.45,372.58,137.88,371.92z M146.74,366.69c1.19-0.69,2.13-1.63,2.82-2.82
				c0.69-1.19,1.04-2.5,1.04-3.91c0-1.42-0.35-2.72-1.04-3.91c-0.69-1.19-1.63-2.13-2.82-2.82c-1.19-0.69-2.5-1.04-3.91-1.04
				c-1.42,0-2.72,0.35-3.91,1.04c-1.19,0.69-2.13,1.63-2.82,2.82c-0.69,1.19-1.04,2.5-1.04,3.91c0,1.42,0.34,2.72,1.04,3.91
				c0.69,1.19,1.63,2.13,2.82,2.82c1.19,0.69,2.5,1.04,3.91,1.04C144.24,367.73,145.55,367.38,146.74,366.69z"/>
				<path className="st0" d="M164.34,363.01v-2.12V347h5.18v1.61c0.41-0.24,0.85-0.47,1.3-0.67c1.42-0.62,3.07-0.93,4.98-0.93h1.19v5.18
				h-1.19c-1.18,0-2.16,0.17-2.95,0.52c-1.07,0.48-1.9,1.33-2.49,2.54c-0.48,1-0.76,2.92-0.83,5.75v11.92h-5.18V363.01z"/>
				<path className="st0" d="M189.91,371.92c-1.57-0.66-2.98-1.59-4.22-2.8c-1.21-1.24-2.14-2.65-2.8-4.22
				c-0.66-1.57-0.98-3.22-0.98-4.95c0-1.73,0.33-3.38,0.98-4.95c0.66-1.57,1.59-2.98,2.8-4.22c1.24-1.21,2.65-2.14,4.22-2.8
				c1.57-0.66,3.22-0.98,4.95-0.98c2.9,0,5.49,0.86,7.77,2.59V347h5.18v25.91h-5.18v-2.59c-2.28,1.73-4.87,2.59-7.77,2.59
				C193.13,372.91,191.48,372.58,189.91,371.92z M198.77,366.69c1.19-0.69,2.13-1.63,2.82-2.82c0.69-1.19,1.04-2.5,1.04-3.91
				c0-1.42-0.35-2.72-1.04-3.91c-0.69-1.19-1.63-2.13-2.82-2.82c-1.19-0.69-2.5-1.04-3.91-1.04c-1.42,0-2.72,0.35-3.91,1.04
				c-1.19,0.69-2.13,1.63-2.82,2.82c-0.69,1.19-1.04,2.5-1.04,3.91c0,1.42,0.34,2.72,1.04,3.91c0.69,1.19,1.63,2.13,2.82,2.82
				c1.19,0.69,2.5,1.04,3.91,1.04C196.28,367.73,197.58,367.38,198.77,366.69z"/>
				<path className="st0" d="M217.92,363.01v-2.07V347h5.18v1.09l0.1-0.05c1.24-0.69,2.69-1.04,4.35-1.04s3.13,0.35,4.41,1.04
				c1.04,0.55,1.93,1.31,2.69,2.28c0.73-0.97,1.61-1.73,2.64-2.28c1.28-0.69,2.75-1.04,4.4-1.04c1.66,0,3.11,0.35,4.35,1.04
				c1.93,1.04,3.35,2.76,4.25,5.18c0.45,1.18,0.73,2.57,0.85,4.2c0.12,1.62,0.18,3.49,0.18,5.6v9.9h-5.18v-9.9
				c0-4.11-0.23-6.77-0.67-7.98c-0.48-1.21-1.11-2.02-1.87-2.44c-0.52-0.28-1.16-0.41-1.92-0.41c-0.79,0-1.43,0.14-1.92,0.41
				c-0.79,0.41-1.42,1.23-1.87,2.44c-0.48,1.21-0.73,3.87-0.73,7.98v9.9h-5.13v-9.9c0-4.11-0.24-6.77-0.73-7.98
				c-0.45-1.21-1.07-2.02-1.87-2.44c-0.48-0.28-1.12-0.41-1.92-0.41c-0.76,0-1.4,0.14-1.92,0.41c-0.76,0.41-1.38,1.23-1.87,2.44
				c-0.38,1.07-0.6,3.06-0.67,5.96v11.92h-5.18V363.01z"/>
				<path className="st0" d="M261.45,336.63h5.29v5.29h-5.29V336.63z M261.5,347h5.18v25.91h-5.18V347z"/>
				<path className="st0" d="M302.96,341.97h-9.54v-5.34h24.41v5.34h-9.54v30.94h-5.34V341.97z"/>
				<path className="st0" d="M325.09,336.63h5.18v11.92c0.41-0.24,0.83-0.45,1.24-0.62c1.45-0.62,3.11-0.93,4.98-0.93
				c1.87,0,3.52,0.31,4.98,0.93c2.28,0.97,3.99,2.64,5.13,5.03c0.55,1.24,0.91,2.68,1.06,4.3c0.15,1.62,0.23,3.51,0.23,5.65v10
				h-5.18v-10c0-1.69-0.04-3.21-0.13-4.56c-0.09-1.35-0.32-2.4-0.7-3.16c-0.55-1.21-1.37-2.04-2.44-2.49
				c-0.79-0.35-1.78-0.52-2.95-0.52c-1.18,0-2.14,0.17-2.9,0.52c-1.11,0.45-1.94,1.28-2.49,2.49c-0.38,0.76-0.61,1.81-0.7,3.16
				s-0.13,2.87-0.13,4.56v10h-5.18V336.63z"/>
				<path className="st0" d="M364.2,371.92c-1.57-0.66-2.98-1.59-4.22-2.8c-1.21-1.24-2.14-2.65-2.8-4.22c-0.66-1.57-0.98-3.22-0.98-4.95
				c0-1.73,0.33-3.38,0.98-4.95c0.66-1.57,1.59-2.98,2.8-4.22c1.24-1.21,2.65-2.14,4.22-2.8c1.57-0.66,3.22-0.98,4.95-0.98
				c2.9,0,5.49,0.86,7.77,2.59V347h5.18v25.91h-5.18v-2.59c-2.28,1.73-4.87,2.59-7.77,2.59
				C367.42,372.91,365.77,372.58,364.2,371.92z M373.06,366.69c1.19-0.69,2.13-1.63,2.82-2.82c0.69-1.19,1.04-2.5,1.04-3.91
				c0-1.42-0.35-2.72-1.04-3.91c-0.69-1.19-1.63-2.13-2.82-2.82c-1.19-0.69-2.5-1.04-3.91-1.04c-1.42,0-2.72,0.35-3.91,1.04
				c-1.19,0.69-2.13,1.63-2.82,2.82c-0.69,1.19-1.04,2.5-1.04,3.91c0,1.42,0.34,2.72,1.04,3.91c0.69,1.19,1.63,2.13,2.82,2.82
				c1.19,0.69,2.5,1.04,3.91,1.04C370.56,367.73,371.87,367.38,373.06,366.69z"/>
				<path className="st0" d="M389.87,338.76h4.77v4.77h-4.77V338.76z M394.38,347h5.18v25.91h-5.18V347z M399.31,338.76h4.77v4.77h-4.77
				V338.76z"/>
			</g>
		</g>
		<g>
			<path className="st1" d="M195.3,188.68c-2.51-5.2-6.16-9.07-11.65-11.21c3.85,3.61,6.62,7.78,7.3,13.1
			c-10.61-0.24-19.43-10.16-18.57-20.73c0.12-1.42,0.75-2,2.04-2.01c9.5-0.09,18.1,6.06,20.24,15.68
			C195.04,185.2,195.1,186.95,195.3,188.68z"/>
			<path className="st1" d="M203.72,182.78c-2.44,0.49-4.79,2.83-6.82,6.43c0.35-7.13,5.75-12.71,12.11-12.64
			c1.63,0.02,2.17,0.57,2.16,2.2c-0.04,6.12-4.8,11.41-12.49,11.8C198.46,189.33,201.49,185.01,203.72,182.78z"/>
			<g>
				<path className="st2" d="M247.91,200.8c-1.72-0.63-3.52-1.11-5.38-1.41c-1.53-0.25-3.11-0.38-4.71-0.38c-0.79,0-1.57,0.03-2.34,0.09
				c-5.39,0.43-10.37,2.32-14.55,5.28c1.41,1.11,2.78,2.3,4.08,3.58c0.06,0.05,0.11,0.11,0.17,0.16c2.56-1.61,5.44-2.74,8.52-3.28
				c1.34-0.23,2.71-0.36,4.12-0.36c0.94,0,1.86,0.06,2.77,0.16c1.85,0.22,3.64,0.64,5.34,1.26c1.42,0.51,2.77,1.16,4.05,1.93
				c1.37-1.34,2.81-2.59,4.31-3.74c-0.16-0.11-0.32-0.22-0.49-0.33C251.97,202.57,249.99,201.57,247.91,200.8z"/>
				<path className="st2" d="M261.12,194.12c-1.91-1.31-3.92-2.45-6.01-3.41c-1.8-0.83-3.66-1.53-5.57-2.09c-2.4-0.7-4.87-1.19-7.39-1.45
				c-1.43-0.15-2.88-0.23-4.33-0.23c-10.78,0-20.61,4.15-27.98,10.92c1.52,0.63,3.01,1.35,4.46,2.14c0.29,0.16,0.58,0.32,0.87,0.49
				c6.18-5.04,14.07-8.07,22.65-8.07c0.28,0,0.55,0,0.83,0.01c2.48,0.06,4.9,0.37,7.23,0.9c1.88,0.43,3.71,1.02,5.47,1.74
				c2.08,0.85,4.06,1.89,5.93,3.09c0.99,0.64,1.95,1.34,2.87,2.08c0.14-0.08,0.27-0.15,0.41-0.23c1.63-0.89,3.3-1.68,5.02-2.37
				c-0.02-0.02-0.04-0.03-0.06-0.05C264.12,196.32,262.65,195.16,261.12,194.12z"/>
				<path className="st2" d="M239.25,211.15c-0.47-0.04-0.95-0.06-1.43-0.06c-1.84,0-3.62,0.29-5.28,0.83c-1.03,0.33-2.01,0.76-2.94,1.26
				c0.05,0.06,0.09,0.12,0.14,0.18c3.49,4.64,6.09,9.82,7.69,15.34c1.6-5.52,4.2-10.71,7.69-15.34c0.12-0.16,0.24-0.31,0.36-0.47
				c-0.28-0.14-0.57-0.28-0.87-0.41C242.94,211.77,241.14,211.3,239.25,211.15z"/>
				<path className="st3" d="M237.26,229.7h0.34c-0.05-0.2-0.11-0.4-0.17-0.61C237.37,229.29,237.31,229.49,237.26,229.7z"/>
				<path className="st4" d="M297.67,222.95c-1.81-1.33-3.81-2.41-5.96-3.19c-1.7-0.62-3.49-1.05-5.34-1.26
				c-0.91-0.11-1.84-0.16-2.77-0.16c-1.4,0-2.78,0.12-4.12,0.36c-6.83,1.2-12.67,5.31-16.18,11h8.41c1.86-1.77,4.1-3.13,6.6-3.93
				c1.67-0.54,3.44-0.83,5.28-0.83c0.48,0,0.96,0.02,1.43,0.06c1.89,0.16,3.69,0.62,5.36,1.34c1.89,0.82,3.61,1.96,5.09,3.37h1.32
				h5.48h1.62c-0.46-0.74-0.95-1.46-1.49-2.14C301.05,225.81,299.46,224.26,297.67,222.95z"/>
				<path className="st4" d="M209.84,197.86c7.37-6.78,17.2-10.92,27.98-10.92c1.46,0,2.9,0.08,4.33,0.23c2.52,0.26,4.99,0.75,7.39,1.45
				c1.91,0.56,3.77,1.26,5.57,2.09c2.09,0.96,4.1,2.1,6.01,3.41c1.53,1.05,3,2.2,4.4,3.46c0.02,0.02,0.04,0.03,0.06,0.05
				c0.23-0.09,0.46-0.19,0.7-0.27c2.09-0.8,4.24-1.46,6.44-1.96c-0.32-0.34-0.64-0.68-0.98-1.01c-0.09-0.09-0.18-0.18-0.28-0.27
				c-1.44-1.42-2.95-2.73-4.53-3.94c-1.96-1.51-4.03-2.85-6.18-4.02c-1.85-1.01-3.76-1.89-5.72-2.65c-2.46-0.94-4.99-1.68-7.59-2.21
				c-3.13-0.63-6.35-0.96-9.62-0.96c-12.81,0-24.86,4.99-33.92,14.05c-0.38,0.38-0.75,0.77-1.12,1.16c1.97,0.48,3.91,1.08,5.8,1.81
				C209,197.52,209.42,197.69,209.84,197.86z"/>
				<path className="st4" d="M251.35,195.07c-1.76-0.72-3.58-1.3-5.47-1.74c-2.33-0.54-4.75-0.85-7.23-0.9
				c-0.28-0.01-0.55-0.01-0.83-0.01c-8.58,0-16.47,3.03-22.65,8.07c1.84,1.05,3.61,2.23,5.31,3.54c0.15,0.12,0.3,0.24,0.45,0.36
				c4.18-2.96,9.16-4.85,14.55-5.28c0.77-0.06,1.55-0.09,2.34-0.09c1.6,0,3.18,0.13,4.71,0.38c1.86,0.3,3.66,0.78,5.38,1.41
				c2.09,0.77,4.06,1.77,5.89,2.97c0.16,0.11,0.33,0.22,0.49,0.33c0.03-0.02,0.06-0.05,0.09-0.07c1.84-1.41,3.77-2.67,5.77-3.79
				c-0.92-0.74-1.88-1.43-2.87-2.08C255.41,196.95,253.42,195.91,251.35,195.07z"/>
				<path className="st3" d="M204.15,215.85h0.09c-0.03-0.01-0.05-0.03-0.08-0.04C204.16,215.82,204.16,215.84,204.15,215.85z"/>
				<g>
					<path className="st4" d="M219.75,220.21c-1.37-1.77-2.9-3.41-4.57-4.89c-0.8-0.71-1.64-1.39-2.51-2.03
					c-0.6-0.45-1.22-0.88-1.85-1.29c-1.21-0.79-2.48-1.5-3.79-2.13c-0.7-0.34-1.41-0.66-2.14-0.96c-0.98-0.4-1.99-0.76-3.01-1.08
					c-0.81-0.25-1.62-0.47-2.45-0.66c-1.41-0.33-2.86-0.57-4.33-0.72c-0.95-0.1-1.92-0.16-2.9-0.18c-0.28-0.01-0.55-0.01-0.83-0.01
					c-15.41,0-28.59,9.77-33.66,23.43h7.15c4.38-9.27,13.48-15.9,24.18-16.74c0.77-0.06,1.55-0.09,2.34-0.09
					c0.34,0,0.68,0.01,1.01,0.02c1.25,0.04,2.49,0.17,3.7,0.36c1.01,0.16,2,0.38,2.97,0.64c0.82,0.22,1.62,0.48,2.41,0.77
					c0.93,0.34,1.83,0.73,2.71,1.16c0.03,0.01,0.05,0.03,0.08,0.04c1.07,0.53,2.11,1.12,3.1,1.77c1.59,1.04,3.07,2.23,4.42,3.54
					c1.96,1.91,3.66,4.09,5.03,6.48c0.38,0.67,0.74,1.36,1.07,2.06h7.15C223.75,226.26,221.96,223.06,219.75,220.21z"/>
					<path className="st4" d="M205.44,222.95c-1.81-1.33-3.81-2.41-5.96-3.19c-1.7-0.62-3.49-1.05-5.34-1.26
					c-0.91-0.11-1.84-0.16-2.77-0.16c-1.4,0-2.78,0.12-4.12,0.36c-6.83,1.2-12.67,5.31-16.18,11h8.41c1.86-1.77,4.1-3.13,6.6-3.93
					c1.67-0.54,3.44-0.83,5.28-0.83c0.48,0,0.96,0.02,1.43,0.06c1.89,0.16,3.69,0.62,5.36,1.34c1.89,0.82,3.61,1.96,5.09,3.37h1.32
					h5.48h1.62c-0.46-0.74-0.95-1.46-1.49-2.14C208.81,225.81,207.22,224.26,205.44,222.95z"/>
				</g>
				<path className="st4" d="M311.99,220.21c-1.37-1.77-2.9-3.41-4.57-4.89c-1.36-1.21-2.82-2.32-4.36-3.32
				c-1.86-1.21-3.85-2.24-5.93-3.09c-1.76-0.72-3.58-1.3-5.47-1.74c-2.33-0.54-4.75-0.85-7.23-0.9c-0.28-0.01-0.55-0.01-0.83-0.01
				c-1.04,0-2.07,0.05-3.09,0.13c-2.35,0.2-4.63,0.63-6.83,1.26c-1.81,0.52-3.55,1.18-5.23,1.96c-2,0.94-3.91,2.05-5.69,3.33
				c-5.79,4.14-10.3,9.96-12.82,16.75h7.15c2.84-6.02,7.67-10.91,13.63-13.85c0.21-0.11,0.43-0.21,0.65-0.31
				c1.65-0.76,3.39-1.38,5.19-1.82c1.53-0.38,3.1-0.64,4.71-0.77c0.66-0.05,1.32-0.08,1.99-0.09c0.12,0,0.23,0,0.35,0
				c1.6,0,3.18,0.13,4.71,0.38c1.86,0.3,3.66,0.78,5.38,1.41c2.09,0.77,4.06,1.77,5.89,2.97c1.59,1.04,3.07,2.23,4.42,3.54
				c1.96,1.91,3.66,4.09,5.03,6.48c0.38,0.67,0.74,1.36,1.07,2.06h7.15C315.99,226.26,314.2,223.06,311.99,220.21z"/>
				<path className="st4" d="M240.59,204.65c-0.91-0.11-1.84-0.16-2.77-0.16c-1.4,0-2.78,0.12-4.12,0.36c-3.08,0.54-5.97,1.68-8.52,3.28
				c0.04,0.04,0.07,0.07,0.11,0.11c1.56,1.56,3,3.21,4.31,4.94c0.93-0.51,1.91-0.93,2.94-1.26c1.66-0.54,3.44-0.83,5.28-0.83
				c0.48,0,0.96,0.02,1.43,0.06c1.89,0.16,3.69,0.62,5.36,1.34c0.29,0.13,0.58,0.26,0.87,0.41c1.25-1.62,2.62-3.18,4.09-4.65
				c0.09-0.09,0.18-0.18,0.28-0.27c0.04-0.04,0.09-0.09,0.14-0.13c-1.28-0.76-2.63-1.41-4.05-1.93
				C244.23,205.3,242.44,204.87,240.59,204.65z"/>
				<path className="st4" d="M237.43,228.7c-1.6-5.52-4.2-10.71-7.69-15.34c-0.05-0.06-0.09-0.12-0.14-0.18
				c-1.31-1.73-2.75-3.38-4.31-4.94c-0.04-0.04-0.07-0.07-0.11-0.11c-0.06-0.05-0.11-0.11-0.17-0.16c-1.3-1.28-2.66-2.47-4.08-3.58
				c-0.15-0.12-0.3-0.24-0.45-0.36c-1.7-1.3-3.47-2.48-5.31-3.54c-0.29-0.16-0.58-0.33-0.87-0.49c-1.45-0.79-2.94-1.51-4.46-2.14
				c-0.42-0.17-0.84-0.34-1.26-0.51c-1.89-0.73-3.83-1.33-5.8-1.81c-0.59-0.14-1.19-0.28-1.79-0.4c-3.13-0.63-6.35-0.96-9.62-0.96
				c-12.81,0-24.86,4.99-33.92,14.05c-6.04,6.04-10.27,13.42-12.42,21.46h6.89c5.3-16.74,20.98-28.91,39.46-28.91
				c1.46,0,2.9,0.08,4.33,0.23c0.82,0.08,1.63,0.2,2.44,0.33c1.68,0.27,3.33,0.65,4.95,1.12c0.66,0.19,1.31,0.4,1.96,0.63
				c1.23,0.43,2.43,0.91,3.61,1.46c0.54,0.25,1.08,0.51,1.61,0.78c1.52,0.78,2.99,1.66,4.41,2.63c0.42,0.29,0.84,0.59,1.26,0.9
				c1.08,0.8,2.13,1.65,3.14,2.57c0.35,0.32,0.7,0.64,1.04,0.97c0.17,0.17,0.35,0.33,0.52,0.5c0.94,0.94,1.83,1.93,2.67,2.95
				c0.11,0.13,0.22,0.26,0.33,0.39c3.25,4.03,5.69,8.58,7.22,13.45h6.42c0.05-0.2,0.11-0.4,0.17-0.61c-0.02-0.07-0.04-0.13-0.06-0.2
				C237.39,228.82,237.41,228.76,237.43,228.7z"/>
				<path className="st3" d="M237.43,229.09c0.06,0.2,0.11,0.4,0.17,0.61h0.11c-0.07-0.27-0.15-0.54-0.22-0.81
				C237.46,228.95,237.44,229.02,237.43,229.09z"/>
				<path className="st3" d="M237.43,229.09c0.02-0.07,0.04-0.13,0.06-0.2c-0.02-0.06-0.04-0.12-0.06-0.19
				c-0.02,0.06-0.04,0.12-0.06,0.19C237.39,228.95,237.41,229.02,237.43,229.09z"/>
				<path className="st4" d="M317.41,208.24c-9.06-9.06-21.11-14.05-33.92-14.05c-3.27,0-6.49,0.33-9.62,0.96
				c-0.38,0.08-0.77,0.16-1.15,0.25c-2.2,0.5-4.35,1.15-6.44,1.96c-0.23,0.09-0.47,0.18-0.7,0.27c-1.72,0.69-3.39,1.48-5.02,2.37
				c-0.14,0.08-0.27,0.15-0.41,0.23c-2,1.12-3.93,2.38-5.77,3.79c-0.03,0.02-0.06,0.05-0.09,0.07c-1.5,1.15-2.94,2.4-4.31,3.74
				c-0.04,0.04-0.09,0.09-0.14,0.13c-0.09,0.09-0.19,0.18-0.28,0.27c-1.47,1.47-2.84,3.03-4.09,4.65c-0.12,0.16-0.24,0.31-0.36,0.47
				c-3.49,4.64-6.09,9.82-7.69,15.34c0.02,0.06,0.04,0.12,0.06,0.19c0.08,0.27,0.15,0.54,0.22,0.81h6.31
				c1.53-4.87,3.97-9.42,7.22-13.45c0.11-0.13,0.22-0.26,0.33-0.39c0.84-1.02,1.73-2,2.67-2.95c0.31-0.31,0.62-0.6,0.93-0.9
				c0.21-0.19,0.41-0.39,0.62-0.58c1.15-1.04,2.36-2.01,3.61-2.91c0.26-0.19,0.52-0.38,0.79-0.56c1.59-1.09,3.24-2.06,4.96-2.9
				c0.35-0.17,0.7-0.34,1.06-0.51c1.39-0.64,2.8-1.2,4.25-1.68c0.44-0.14,0.88-0.28,1.32-0.41c1.85-0.54,3.73-0.95,5.65-1.24
				c0.57-0.08,1.15-0.16,1.73-0.22c1.43-0.15,2.88-0.23,4.33-0.23c18.47,0,34.15,12.17,39.46,28.91h6.89
				C327.68,221.65,323.45,214.28,317.41,208.24z"/>
			</g>
			<path className="st3" d="M342.05,235.45H132.57c-1.92,0.29-2.33,1.26-2.21,4.05c0.13,2.86,0.4,5.73,0.81,8.56
			c3.67,25.4,23.44,47.32,48.38,53.53c4.61,1.15,9.35,1.75,14.32,2.65c0,0.6-0.01,1.39,0,2.19c0.04,3.59,0.43,3.98,3.92,3.98
			c24.9,0,49.8,0,74.69,0c1.77,0,3.54-0.02,5.3,0.01c2.04,0.04,2.98-0.96,2.94-2.97c-0.02-1.16,0-2.31,0-3.53
			c1.41-0.13,2.5-0.23,3.58-0.34c1.17-0.12,2.35-0.22,3.51-0.41c22.59-3.86,39.21-15.98,49.7-36.33c4.52-8.76,6.64-18.21,6.75-28.07
			C344.28,236.61,343.72,235.73,342.05,235.45z M317.26,277.19c6.82-10.51,10.48-22,10.64-34.67c1.41,0,2.56,0,3.72,0
			c1.2,0,2.41,0,3.82,0C333.77,256.62,327.73,268.04,317.26,277.19z"/>
			<path className="st2" d="M232.35,158.02c-0.73,0.33-1.41,0.65-2.06,0.97c-1.42,0.7-1.33,2.17-1.06,2.93c0.27,0.76,0.9,1.6,2.34,1.25
			c5.85-1.39,11.13-4.54,14.31-8.49l-4.66-1.72C237.96,155.44,234.92,156.83,232.35,158.02z"/>
			<path className="st2" d="M363.47,172.13c0.33,0.09,0.61-0.02,0.74-0.1c0.27-0.15,0.46-0.41,0.55-0.72l1.36-5.05
			c0.08-0.31,0.04-0.62-0.11-0.88c-0.1-0.16-0.28-0.37-0.59-0.45l-75.69-18.68c0.01,1.41-0.12,2.97-0.39,4.68L363.47,172.13z"/>
			<path className="st4" d="M369.02,163.61c-0.62-1.04-1.6-1.78-2.76-2.06l-76.94-18.99c0.27,1.1,0.41,2.33,0.42,3.7l75.69,18.68
			c0.32,0.08,0.5,0.29,0.59,0.45c0.15,0.26,0.19,0.58,0.11,0.88l-1.36,5.05c-0.08,0.31-0.28,0.56-0.55,0.72
			c-0.14,0.08-0.41,0.19-0.74,0.1l-74.13-21.19c-0.17,1.08-0.39,2.23-0.68,3.44l73.84,21.11c0.4,0.12,0.81,0.17,1.22,0.17
			c0.76,0,1.52-0.2,2.2-0.59c1.09-0.62,1.87-1.63,2.2-2.85l1.36-5.05C369.82,165.95,369.65,164.68,369.02,163.61z"/>
			<path className="st4" d="M359.57,184.86c0.33,0.11,0.49,0.36,0.56,0.5c0.14,0.28,0.15,0.59,0.05,0.9l-1.7,4.95
			c-0.1,0.3-0.31,0.54-0.59,0.67c-0.17,0.08-0.44,0.15-0.74,0.04l-71.93-26.47c-0.27,0.74-0.56,1.49-0.86,2.26
			c-0.13,0.34-0.27,0.67-0.41,1l71.99,26.49c0.5,0.18,1.01,0.27,1.53,0.27c0.65,0,1.3-0.15,1.92-0.44c1.13-0.54,1.98-1.49,2.39-2.69
			l1.7-4.95c0.41-1.2,0.33-2.47-0.23-3.59c-0.54-1.09-1.46-1.89-2.6-2.26l-72.86-23.83c-0.31,1.07-0.65,2.18-1.03,3.34
			L359.57,184.86z"/>
			<path className="st4" d="M289.32,142.56c-0.22-0.9-0.53-1.71-0.92-2.44c-1.11-2.06-2.91-3.41-5.2-3.93c-1.22-0.34-2.68-0.46-3.93-0.31
			c-0.7,0.08-1.36,0.25-1.97,0.48c-1.1-1.26-2.57-2.1-4.33-2.46c-0.4-0.1-1.67-0.38-3.13-0.35c-0.83,0.02-1.6,0.13-2.3,0.34
			c-1.28-2-4.52-3.53-6.92-3.94c-4.18-0.71-7.7,0.31-10.22,2.36c-0.2,0.16-0.4,0.33-0.59,0.5l-22.63-5.58
			c-2.37-0.58-4.82,0.9-5.47,3.3v0c-0.65,2.41,0.73,4.92,3.08,5.59l18.82,5.38c-0.29,0.51-0.58,1-0.87,1.48l-18.23-5.96
			c-2.32-0.76-4.87,0.54-5.68,2.9l0,0c-0.81,2.36,0.39,4.96,2.68,5.8l12.94,4.76c-1.58,0.9-3.1,1.6-4.53,2.26
			c-0.76,0.35-1.48,0.68-2.2,1.03c-4.24,2.09-5.2,6.68-3.96,10.13c1.16,3.23,3.98,5.18,7.21,5.18c0.64,0,1.29-0.08,1.95-0.23
			c1.74-0.41,3.45-0.97,5.09-1.63c-3.74,4.32-7.04,9.12-7.04,16.36c0,1.66,1.35,3.01,3.01,3.01c1.66,0,3.01-1.35,3.01-3.01
			c0-6.31,3.38-10.04,7.66-14.76c2.87-3.17,6.1-6.74,8.4-11.49l4.42,1.62c-1.97,3.98-4.68,7.02-7.32,9.96
			c-4.12,4.59-8.01,8.93-7.36,15.51c0.15,1.55,1.46,2.71,2.99,2.71c0.1,0,0.2,0,0.3-0.01c1.65-0.16,2.86-1.64,2.7-3.29
			c-0.37-3.77,1.87-6.46,5.85-10.9c2.9-3.23,6.16-6.87,8.52-11.89l4.87,1.79c-2.1,4.38-5.06,7.74-7.7,10.73
			c-3.81,4.3-7.4,8.37-7.07,14.07c0.09,1.6,1.42,2.83,3,2.83c0.06,0,0.12,0,0.18-0.01c1.66-0.1,2.92-1.52,2.83-3.17
			c-0.19-3.23,2.23-5.96,5.57-9.74c2.87-3.24,6.39-7.22,8.87-12.63l4.63,1.7c-2,4.59-4.83,8.01-7.57,11.32
			c-4.07,4.92-7.92,9.57-7.28,16.52c0.14,1.56,1.45,2.73,2.99,2.73c0.09,0,0.18,0,0.28-0.01c1.65-0.15,2.87-1.61,2.72-3.27
			c-0.41-4.48,2.25-7.7,5.93-12.15c2.94-3.55,6.24-7.55,8.58-13.08c0.14-0.33,0.28-0.66,0.41-1c0.3-0.77,0.58-1.52,0.86-2.26
			l-5.64-2.08l-4.56-1.68l-5.65-2.08l-4.87-1.79l-5.65-2.08l-4.44-1.63l-5.64-2.08l-4.5-1.66l-6.24-2.3l-15.32-5.64
			c-0.52-0.19-0.78-0.81-0.58-1.38c0.2-0.57,0.78-0.89,1.3-0.72l17.08,5.59l5.96,1.95l3.33,1.09l5.72,1.87l4.65,1.52l5.72,1.87
			l4.92,1.61l5.72,1.87l4.53,1.48l5.72,1.87c0.38-1.16,0.72-2.27,1.03-3.34c0.33-1.16,0.62-2.27,0.87-3.33
			c0.28-1.21,0.51-2.36,0.68-3.44c0.27-1.71,0.4-3.27,0.39-4.68C289.72,144.89,289.58,143.65,289.32,142.56z M241.22,152.97
			l4.66,1.72c-3.18,3.95-8.46,7.1-14.31,8.49c-1.44,0.34-2.07-0.49-2.34-1.25c-0.27-0.76-0.36-2.24,1.06-2.93
			c0.65-0.32,1.33-0.63,2.06-0.97C234.92,156.83,237.96,155.44,241.22,152.97z M251.37,145.79l-0.66-0.22l-2.29-0.75
			c0.24-0.42,0.49-0.84,0.73-1.26c0.08-0.14,0.16-0.28,0.24-0.42l1.78,0.51l0.77,0.22C251.76,144.47,251.57,145.11,251.37,145.79z
			 M252.7,140.46l-0.75-0.22l-0.69-0.2l-5.84-1.67l-19.67-5.62c-0.53-0.15-0.83-0.74-0.67-1.32h0c0.16-0.59,0.72-0.95,1.26-0.82
			l20.83,5.14l5.65,1.39l0.23,0.06C253.03,138.04,252.94,139.11,252.7,140.46z M262.73,143.33c-0.17,0.99-0.42,2.12-0.77,3.41
			c-0.19,0.71-0.42,1.48-0.67,2.3l-4.39-1.44c0.23-0.73,0.43-1.44,0.62-2.13c0.08-0.28,0.15-0.56,0.22-0.84
			c0.23-0.89,0.42-1.75,0.58-2.56c0.24-1.23,0.4-2.38,0.48-3.45c0.01-0.13,0.02-0.27,0.03-0.4c0.06-0.96,0.04-1.85-0.04-2.68
			c-0.01-0.11-0.02-0.22-0.04-0.33c0.18-0.04,0.35-0.06,0.52-0.07c0.87-0.08,1.58,0.12,2.15,0.53c0.58,0.42,1,1.06,1.27,1.87
			c0,0.01,0,0.01,0,0.02c0.17,0.45,0.33,1.12,0.36,2.12C263.07,140.59,262.99,141.78,262.73,143.33z M273.34,146.36
			c-0.14,0.98-0.37,2.12-0.69,3.43c-0.21,0.83-0.46,1.73-0.75,2.71l-4.88-1.6c0.27-0.87,0.52-1.71,0.74-2.51
			c0.32-1.2,0.59-2.33,0.79-3.41c0.26-1.38,0.42-2.66,0.48-3.84c0.03-0.5,0.03-0.98,0.02-1.44c0.36-0.19,1.52-0.22,2.45,0.02
			l0.21,0.05c0.76,0.15,1.07,0.47,1.31,0.91c0.17,0.31,0.35,0.8,0.45,1.55C273.6,143.17,273.61,144.49,273.34,146.36z M283.5,149.27
			c-0.13,1-0.34,2.14-0.64,3.45c-0.22,0.95-0.48,1.99-0.8,3.12l-4.45-1.46c0.31-1.02,0.59-1.99,0.82-2.93
			c0.3-1.21,0.55-2.35,0.73-3.42c0.26-1.56,0.4-2.98,0.4-4.28c0-0.63-0.02-1.23-0.08-1.79c0.38-0.16,1.39-0.18,2.12,0.03l0.23,0.06
			c0.62,0.13,0.98,0.39,1.27,0.93c0.19,0.35,0.39,0.9,0.51,1.77C283.76,145.77,283.78,147.22,283.5,149.27z"/>
		</g>
	</g>
</svg>
