<svg xmlns="http://www.w3.org/2000/svg" viewBox="0 0 119.26 102.78">
  <defs>
    <style>.cls-1,.cls-5{font-size:20.39px;font-family:Espera-Bold, Espera;font-weight:700;}.cls-1,.cls-5,.cls-8{fill:#4d4a5c;}.cls-1{letter-spacing:0.04em;}.cls-2{letter-spacing:0.07em;}.cls-3{letter-spacing:0.03em;}.cls-4{letter-spacing:0.08em;}.cls-5{letter-spacing:0.06em;}.cls-6{letter-spacing:0.06em;}.cls-7{letter-spacing:0.07em;}.cls-9{fill:#ddb057;}.cls-10{fill:#db6551;}</style>
  </defs>
  <title>Fichier 1</title>
  <g id="Calque_2" data-name="Calque 2">
    <g id="Calque_1-2" data-name="Calque 1">
      <text class="cls-1" transform="translate(0 98)">S<tspan class="cls-2" x="13.46" y="0">o</tspan>
        <tspan class="cls-3" x="26.61" y="0">r</tspan>
        <tspan class="cls-4" x="33.94" y="0">ami</tspan>
      </text>
      <text class="cls-5" transform="translate(73.37 98.31)">T<tspan class="cls-6" x="11.75" y="0">h</tspan>
        <tspan class="cls-7" x="24.39" y="0">aï</tspan>
      </text>
      <path class="cls-8" d="M76.75,74.22c0,.51,0,1,0,1.47a1.05,1.05,0,0,1-1.21,1.23c-.74,0-1.47,0-2.2,0H42.41c-1.45,0-1.61-.16-1.62-1.64,0-.33,0-.66,0-.91-2.06-.37-4-.62-5.93-1.1a27.31,27.31,0,0,1-20-22.17,35,35,0,0,1-.33-3.54c-.07-1.45.22-1.72,1.66-1.72h85.57c1,0,1.36.36,1.35,1.41a25.76,25.76,0,0,1-2.8,11.63,27.18,27.18,0,0,1-20.58,15c-.48.08-1,.12-1.45.17ZM26.11,64.71a28.42,28.42,0,0,1-4.74-15.44H18A23.41,23.41,0,0,0,26.11,64.71Z"/>
      <path class="cls-9" d="M79.86,28.82C88.5,30.21,94.12,34.94,97,43.22a22.23,22.23,0,0,1-2.35,0,1,1,0,0,1-.65-.57A16.81,16.81,0,0,0,82.28,32.05a30.16,30.16,0,0,0-4.78-.57,1,1,0,0,0-.68.19,33.8,33.8,0,0,0-2.48,2.46,15.68,15.68,0,0,1,10.29,1.35,14.85,14.85,0,0,1,7,7.74,22.45,22.45,0,0,1-2.49,0c-.28,0-.58-.39-.75-.67A12.08,12.08,0,0,0,70.89,38.7a11.27,11.27,0,0,0-3.46,3.84,1.09,1.09,0,0,1-1.13.69c-1.28,0-2.56,0-4,0,.28-.32.43-.52.61-.7L83.64,22.67Q89.25,17.3,94.86,11.9a3.07,3.07,0,0,0,.92-1.41,1.86,1.86,0,0,0-.34-1.55A2,2,0,0,0,93.8,8.6a4,4,0,0,0-1.61,1.13Q84.62,17.62,77.1,25.55L61.19,42.23a.75.75,0,0,1-.55.25c.66-1.1,1.31-2.21,2-3.31Q72.9,22.26,83.17,5.34a3.77,3.77,0,0,0,.64-1.77,1.94,1.94,0,0,0-.73-1.49,2.12,2.12,0,0,0-1.68.11,3.1,3.1,0,0,0-1.1,1.29q-7.68,14-15.31,28c-2,3.69-4.07,7.36-6,11.07-.6,1.14-1.54.51-2.32.68s-.77-.44-.94-.88A16.88,16.88,0,0,0,38,31.56,16.44,16.44,0,0,0,24,42c-.4.93-.81,1.37-1.83,1.2a8.69,8.69,0,0,0-1.36,0,15.61,15.61,0,0,1,2.14-5,19.56,19.56,0,0,1,17.52-9.42,8.59,8.59,0,0,1,2.27.23,2.45,2.45,0,0,0,2.43-.7c6.14-5,13-6,20.32-3.17.64.24.88.1,1.19-.46,4-7.28,7.92-14.56,11.94-21.81a7.59,7.59,0,0,1,2-2.29,2.93,2.93,0,0,1,3.66.06,3.16,3.16,0,0,1,1.3,3.46,6.22,6.22,0,0,1-.78,1.93q-6.47,10.73-13,21.42c-.24.4-.45.82-.67,1.23l.2.17c.27-.24.56-.46.81-.72q9.28-9.72,18.58-19.44A9,9,0,0,1,93.12,7a3.06,3.06,0,0,1,3.69.72,3.09,3.09,0,0,1,.58,3.64,7.29,7.29,0,0,1-1.49,2c-5,4.85-10.08,9.66-15.12,14.49C80.49,28.13,80.22,28.44,79.86,28.82Zm-15-.9c-4.22-2.94-14.74-1.54-17.69,2.3a10.82,10.82,0,0,1,1.23.61,1.58,1.58,0,0,0,1.9,0,15.87,15.87,0,0,1,3.14-1.43,14.45,14.45,0,0,1,9.58.22c.28.1.79.12.92-.05A11.26,11.26,0,0,0,64.88,27.92Zm-2.43,4.42c-2.74-1.65-8.54-1.16-10.41.7.44.41.86.85,1.34,1.22a1,1,0,0,0,.8.17,10.08,10.08,0,0,1,6.7-.28.76.76,0,0,0,.68-.17A17.32,17.32,0,0,0,62.45,32.34Zm-2.36,4.41a6.18,6.18,0,0,0-4.4,0L58,40.63Z"/>
      <path class="cls-9" d="M53.34,43.22a12.92,12.92,0,0,1-2.26,0,1.74,1.74,0,0,1-.94-.81A11.77,11.77,0,0,0,39.62,36.5a11.45,11.45,0,0,0-10,5.58,2,2,0,0,1-2.17,1.15,7.84,7.84,0,0,0-1.19,0c.9-3.79,5.73-8.79,12.15-9.32A14.44,14.44,0,0,1,53.34,43.22Z"/>
      <path class="cls-10" d="M41.38,26.5a8.8,8.8,0,0,0-4.82-4.64,8.92,8.92,0,0,1,3,5.43,8.13,8.13,0,0,1-7.69-8.59c.05-.59.31-.82.85-.83a8.37,8.37,0,0,1,8.38,6.5A21.36,21.36,0,0,1,41.38,26.5Z"/>
      <path class="cls-9" d="M69.83,43.22a9.42,9.42,0,0,1,7.57-4.33c3.51-.17,6.3,1.29,8.56,4.32-1.57-.14-2.91.35-4.27-.54a6.53,6.53,0,0,0-7.33-.16,4.48,4.48,0,0,1-2.73.72C71.12,43.19,70.6,43.22,69.83,43.22Z"/>
      <path class="cls-9" d="M47.64,43.22c-1.55-.1-3,.21-4.47-.74a6.21,6.21,0,0,0-6.91,0,4.57,4.57,0,0,1-2.8.74c-.51,0-1,0-1.75,0a9.5,9.5,0,0,1,7.65-4.34C42.71,38.68,46.48,40.67,47.64,43.22Z"/>
      <path class="cls-10" d="M43,27.17l1.88-3.11c-.81,0-1.49.63-2.83,2.67a5.26,5.26,0,0,1,5-5.24c.67,0,.89.24.89.91a5.11,5.11,0,0,1-4.67,5Z"/>
    </g>
  </g>
</svg>